<mxfile host="app.diagrams.net" modified="2020-08-24T09:14:28.962Z" agent="5.0 (Macintosh; Intel Mac OS X 10_15_6) AppleWebKit/537.36 (KHTML, like Gecko) Chrome/84.0.4147.135 Safari/537.36" etag="OMjsXp1Uo2tHYwN6SB76" version="13.6.4" type="github">
  <diagram id="x0R3YD3kObwLDxtmjgca" name="Page-1">
    <mxGraphModel dx="1042" dy="616" grid="1" gridSize="10" guides="1" tooltips="1" connect="1" arrows="1" fold="1" page="1" pageScale="1" pageWidth="827" pageHeight="1169" background="#ffffff" math="0" shadow="0">
      <root>
        <mxCell id="0" />
        <mxCell id="1" parent="0" />
        <mxCell id="UaSw122LOiZpy2oq67en-1" value="&lt;p style=&quot;margin: 0px ; margin-top: 4px ; text-align: center ; text-decoration: underline&quot;&gt;&lt;span&gt;&lt;br&gt;&lt;/span&gt;&lt;/p&gt;&lt;p style=&quot;margin: 0px ; margin-top: 4px ; text-align: center ; text-decoration: underline&quot;&gt;&lt;span&gt;producer proxy&lt;/span&gt;&lt;br&gt;&lt;/p&gt;" style="verticalAlign=middle;align=center;overflow=fill;fontSize=12;fontFamily=Helvetica;html=1;rounded=1;fontStyle=1;strokeWidth=3;fillColor=#E6FFCC" parent="1" vertex="1">
          <mxGeometry x="200" y="290" width="100" height="49" as="geometry" />
        </mxCell>
        <mxCell id="UaSw122LOiZpy2oq67en-2" value="producer sdk" style="whiteSpace=wrap;align=center;verticalAlign=middle;fontStyle=1;strokeWidth=3;fillColor=#FFFFCC" parent="1" vertex="1">
          <mxGeometry x="200" y="110" width="100" height="50" as="geometry" />
        </mxCell>
        <mxCell id="UaSw122LOiZpy2oq67en-3" value="" style="shape=process;whiteSpace=wrap;align=center;verticalAlign=middle;size=0.0475;fontStyle=1;strokeWidth=3;fillColor=#FFCCCC" parent="1" vertex="1">
          <mxGeometry x="155" y="404.5" width="580" height="50" as="geometry" />
        </mxCell>
        <mxCell id="UaSw122LOiZpy2oq67en-4" value="&lt;p style=&quot;margin: 0px ; margin-top: 4px ; text-align: center ; text-decoration: underline&quot;&gt;&lt;br&gt;&lt;/p&gt;&lt;p style=&quot;margin: 0px ; margin-top: 4px ; text-align: center ; text-decoration: underline&quot;&gt;consumer proxy&lt;/p&gt;" style="verticalAlign=middle;align=center;overflow=fill;fontSize=12;fontFamily=Helvetica;html=1;rounded=1;fontStyle=1;strokeWidth=3;fillColor=#E6FFCC" parent="1" vertex="1">
          <mxGeometry x="530" y="285" width="110" height="50" as="geometry" />
        </mxCell>
        <mxCell id="UaSw122LOiZpy2oq67en-6" value="business_topic" style="rounded=1;whiteSpace=wrap;html=1;" parent="1" vertex="1">
          <mxGeometry x="190" y="419" width="120" height="21" as="geometry" />
        </mxCell>
        <mxCell id="UaSw122LOiZpy2oq67en-14" value="" style="endArrow=classic;html=1;exitX=0.5;exitY=1;exitDx=0;exitDy=0;entryX=0.5;entryY=0;entryDx=0;entryDy=0;" parent="1" source="UaSw122LOiZpy2oq67en-16" target="UaSw122LOiZpy2oq67en-1" edge="1">
          <mxGeometry width="50" height="50" relative="1" as="geometry">
            <mxPoint x="100" y="300" as="sourcePoint" />
            <mxPoint x="150" y="250" as="targetPoint" />
          </mxGeometry>
        </mxCell>
        <mxCell id="UaSw122LOiZpy2oq67en-15" value="" style="endArrow=classic;html=1;exitX=0.5;exitY=1;exitDx=0;exitDy=0;entryX=0.5;entryY=0;entryDx=0;entryDy=0;" parent="1" source="UaSw122LOiZpy2oq67en-1" target="UaSw122LOiZpy2oq67en-6" edge="1">
          <mxGeometry width="50" height="50" relative="1" as="geometry">
            <mxPoint x="100" y="340" as="sourcePoint" />
            <mxPoint x="250" y="380" as="targetPoint" />
          </mxGeometry>
        </mxCell>
        <mxCell id="UaSw122LOiZpy2oq67en-16" value="send_message" style="text;spacingTop=-5;align=center" parent="1" vertex="1">
          <mxGeometry x="235" y="210" width="30" height="20" as="geometry" />
        </mxCell>
        <mxCell id="UaSw122LOiZpy2oq67en-17" value="" style="endArrow=classic;html=1;exitX=0.5;exitY=1;exitDx=0;exitDy=0;entryX=0.5;entryY=0;entryDx=0;entryDy=0;" parent="1" source="UaSw122LOiZpy2oq67en-2" target="UaSw122LOiZpy2oq67en-16" edge="1">
          <mxGeometry width="50" height="50" relative="1" as="geometry">
            <mxPoint x="250" y="230" as="sourcePoint" />
            <mxPoint x="250" y="290" as="targetPoint" />
          </mxGeometry>
        </mxCell>
        <mxCell id="UaSw122LOiZpy2oq67en-26" value="&lt;b&gt;&lt;font style=&quot;font-size: 18px&quot;&gt;MQ&lt;/font&gt;&lt;/b&gt;" style="text;html=1;strokeColor=none;fillColor=none;align=center;verticalAlign=middle;whiteSpace=wrap;rounded=0;" parent="1" vertex="1">
          <mxGeometry x="310" y="384.5" width="40" height="20" as="geometry" />
        </mxCell>
        <mxCell id="UaSw122LOiZpy2oq67en-30" value="consumer sdk" style="whiteSpace=wrap;align=center;verticalAlign=middle;fontStyle=1;strokeWidth=3;fillColor=#FFFFCC" parent="1" vertex="1">
          <mxGeometry x="535" y="110" width="100" height="50" as="geometry" />
        </mxCell>
        <mxCell id="UaSw122LOiZpy2oq67en-35" value="" style="verticalLabelPosition=bottom;verticalAlign=top;html=1;shape=mxgraph.basic.rect;fillColor2=none;strokeWidth=1;size=20;indent=5;fillColor=none;dashed=1;" parent="1" vertex="1">
          <mxGeometry x="150" y="250" width="260" height="100" as="geometry" />
        </mxCell>
        <mxCell id="UaSw122LOiZpy2oq67en-37" value="" style="verticalLabelPosition=bottom;verticalAlign=top;html=1;shape=mxgraph.basic.rect;fillColor2=none;strokeWidth=1;size=20;indent=5;fillColor=none;dashed=1;" parent="1" vertex="1">
          <mxGeometry x="150" y="90" width="590" height="150" as="geometry" />
        </mxCell>
        <mxCell id="UaSw122LOiZpy2oq67en-38" value="&lt;b&gt;gRPC Headers&lt;br&gt;（sdk_ip, msg_born_time）&lt;/b&gt;" style="whiteSpace=wrap;html=1;shape=mxgraph.basic.rectCallout;dx=30;dy=15;boundedLbl=1;dashed=1;fillColor=none;" parent="1" vertex="1">
          <mxGeometry x="280" y="150" width="180" height="60" as="geometry" />
        </mxCell>
        <mxCell id="UaSw122LOiZpy2oq67en-40" value="" style="endArrow=classic;html=1;exitX=0.5;exitY=0;exitDx=0;exitDy=0;" parent="1" target="UaSw122LOiZpy2oq67en-30" edge="1" source="UaSw122LOiZpy2oq67en-4">
          <mxGeometry width="50" height="50" relative="1" as="geometry">
            <mxPoint x="630" y="260" as="sourcePoint" />
            <mxPoint x="320" y="580" as="targetPoint" />
            <Array as="points" />
          </mxGeometry>
        </mxCell>
        <mxCell id="t6tP__WnYuq1E1ounAgz-5" value="pull_message" style="edgeLabel;html=1;align=center;verticalAlign=middle;resizable=0;points=[];" vertex="1" connectable="0" parent="UaSw122LOiZpy2oq67en-40">
          <mxGeometry x="0.2558" y="4" relative="1" as="geometry">
            <mxPoint as="offset" />
          </mxGeometry>
        </mxCell>
        <mxCell id="UaSw122LOiZpy2oq67en-41" value="&lt;b&gt;gRPC Headers&lt;br&gt;（sdk_ip, msg_ack_time）&lt;/b&gt;" style="whiteSpace=wrap;html=1;shape=mxgraph.basic.rectCallout;dx=30;dy=15;boundedLbl=1;dashed=1;fillColor=none;direction=east;" parent="1" vertex="1">
          <mxGeometry x="610" y="150" width="180" height="60" as="geometry" />
        </mxCell>
        <mxCell id="t6tP__WnYuq1E1ounAgz-3" value="business_topic" style="rounded=1;whiteSpace=wrap;html=1;" vertex="1" parent="1">
          <mxGeometry x="525" y="419" width="120" height="21" as="geometry" />
        </mxCell>
        <mxCell id="t6tP__WnYuq1E1ounAgz-7" value="" style="endArrow=classic;html=1;exitX=0.5;exitY=0;exitDx=0;exitDy=0;" edge="1" parent="1" source="t6tP__WnYuq1E1ounAgz-3" target="UaSw122LOiZpy2oq67en-4">
          <mxGeometry width="50" height="50" relative="1" as="geometry">
            <mxPoint x="586" y="380" as="sourcePoint" />
            <mxPoint x="580" y="380" as="targetPoint" />
          </mxGeometry>
        </mxCell>
        <mxCell id="t6tP__WnYuq1E1ounAgz-8" value="disk" style="shape=cylinder2;whiteSpace=wrap;html=1;boundedLbl=1;backgroundOutline=1;size=15;" vertex="1" parent="1">
          <mxGeometry x="335" y="290" width="70" height="40" as="geometry" />
        </mxCell>
        <mxCell id="t6tP__WnYuq1E1ounAgz-10" value="disk" style="shape=cylinder2;whiteSpace=wrap;html=1;boundedLbl=1;backgroundOutline=1;size=15;" vertex="1" parent="1">
          <mxGeometry x="430" y="290" width="70" height="40" as="geometry" />
        </mxCell>
        <mxCell id="t6tP__WnYuq1E1ounAgz-11" value="" style="endArrow=classic;html=1;entryX=0;entryY=0.65;entryDx=0;entryDy=0;entryPerimeter=0;strokeColor=#33FF33;" edge="1" parent="1" target="t6tP__WnYuq1E1ounAgz-8">
          <mxGeometry width="50" height="50" relative="1" as="geometry">
            <mxPoint x="300" y="316" as="sourcePoint" />
            <mxPoint x="440" y="280" as="targetPoint" />
          </mxGeometry>
        </mxCell>
        <mxCell id="t6tP__WnYuq1E1ounAgz-14" value="Tracing Data" style="whiteSpace=wrap;html=1;shape=mxgraph.basic.rectCallout;dx=30;dy=15;boundedLbl=1;" vertex="1" parent="1">
          <mxGeometry x="300" y="260" width="80" height="40" as="geometry" />
        </mxCell>
        <mxCell id="t6tP__WnYuq1E1ounAgz-16" value="" style="endArrow=classic;html=1;exitX=0;exitY=0.5;exitDx=0;exitDy=0;strokeColor=#66FF66;" edge="1" parent="1" source="UaSw122LOiZpy2oq67en-4" target="t6tP__WnYuq1E1ounAgz-10">
          <mxGeometry width="50" height="50" relative="1" as="geometry">
            <mxPoint x="390" y="240" as="sourcePoint" />
            <mxPoint x="440" y="190" as="targetPoint" />
          </mxGeometry>
        </mxCell>
        <mxCell id="t6tP__WnYuq1E1ounAgz-17" value="Tracing Data" style="whiteSpace=wrap;html=1;shape=mxgraph.basic.rectCallout;dx=30;dy=15;boundedLbl=1;" vertex="1" parent="1">
          <mxGeometry x="490" y="260" width="80" height="40" as="geometry" />
        </mxCell>
        <mxCell id="t6tP__WnYuq1E1ounAgz-18" value="" style="endArrow=classic;html=1;strokeColor=#66FF66;exitX=0.543;exitY=1;exitDx=0;exitDy=0;exitPerimeter=0;entryX=0.163;entryY=0.048;entryDx=0;entryDy=0;entryPerimeter=0;" edge="1" parent="1" source="t6tP__WnYuq1E1ounAgz-8" target="t6tP__WnYuq1E1ounAgz-19">
          <mxGeometry width="50" height="50" relative="1" as="geometry">
            <mxPoint x="390" y="240" as="sourcePoint" />
            <mxPoint x="440" y="190" as="targetPoint" />
          </mxGeometry>
        </mxCell>
        <mxCell id="t6tP__WnYuq1E1ounAgz-28" value="Log Agent" style="edgeLabel;html=1;align=center;verticalAlign=middle;resizable=0;points=[];" vertex="1" connectable="0" parent="t6tP__WnYuq1E1ounAgz-18">
          <mxGeometry x="-0.0445" relative="1" as="geometry">
            <mxPoint as="offset" />
          </mxGeometry>
        </mxCell>
        <mxCell id="t6tP__WnYuq1E1ounAgz-19" value="mq_tracing_topic" style="rounded=1;whiteSpace=wrap;html=1;" vertex="1" parent="1">
          <mxGeometry x="350" y="419" width="140" height="21" as="geometry" />
        </mxCell>
        <mxCell id="t6tP__WnYuq1E1ounAgz-20" value="" style="endArrow=classic;html=1;strokeColor=#66FF66;entryX=0.821;entryY=0.048;entryDx=0;entryDy=0;entryPerimeter=0;" edge="1" parent="1" source="t6tP__WnYuq1E1ounAgz-10" target="t6tP__WnYuq1E1ounAgz-19">
          <mxGeometry width="50" height="50" relative="1" as="geometry">
            <mxPoint x="450" y="410" as="sourcePoint" />
            <mxPoint x="460" y="430" as="targetPoint" />
          </mxGeometry>
        </mxCell>
        <mxCell id="t6tP__WnYuq1E1ounAgz-29" value="Log Agent" style="edgeLabel;html=1;align=center;verticalAlign=middle;resizable=0;points=[];" vertex="1" connectable="0" parent="t6tP__WnYuq1E1ounAgz-20">
          <mxGeometry x="-0.0889" y="-2" relative="1" as="geometry">
            <mxPoint as="offset" />
          </mxGeometry>
        </mxCell>
        <mxCell id="t6tP__WnYuq1E1ounAgz-21" value="" style="verticalLabelPosition=bottom;verticalAlign=top;html=1;shape=mxgraph.basic.rect;fillColor2=none;strokeWidth=1;size=20;indent=5;fillColor=none;dashed=1;" vertex="1" parent="1">
          <mxGeometry x="420" y="250" width="320" height="100" as="geometry" />
        </mxCell>
        <mxCell id="t6tP__WnYuq1E1ounAgz-23" value="&lt;b&gt;consumer sdk&lt;/b&gt;" style="rounded=0;whiteSpace=wrap;html=1;strokeWidth=2;strokeColor=#1A1A1A;fillColor=#FFFFCC;" vertex="1" parent="1">
          <mxGeometry x="360" y="490" width="120" height="40" as="geometry" />
        </mxCell>
        <mxCell id="t6tP__WnYuq1E1ounAgz-24" value="&lt;b&gt;&lt;font style=&quot;font-size: 18px&quot;&gt;TIKV&lt;/font&gt;&lt;/b&gt;" style="shape=cylinder2;whiteSpace=wrap;html=1;boundedLbl=1;backgroundOutline=1;size=15;" vertex="1" parent="1">
          <mxGeometry x="360" y="560" width="120" height="50" as="geometry" />
        </mxCell>
        <mxCell id="t6tP__WnYuq1E1ounAgz-26" value="" style="endArrow=classic;html=1;strokeColor=#66FF66;exitX=0.5;exitY=1;exitDx=0;exitDy=0;" edge="1" parent="1" source="t6tP__WnYuq1E1ounAgz-19" target="t6tP__WnYuq1E1ounAgz-23">
          <mxGeometry width="50" height="50" relative="1" as="geometry">
            <mxPoint x="380" y="370" as="sourcePoint" />
            <mxPoint x="430" y="320" as="targetPoint" />
          </mxGeometry>
        </mxCell>
        <mxCell id="t6tP__WnYuq1E1ounAgz-27" value="" style="endArrow=classic;html=1;strokeColor=#66FF66;exitX=0.5;exitY=1;exitDx=0;exitDy=0;" edge="1" parent="1" source="t6tP__WnYuq1E1ounAgz-23" target="t6tP__WnYuq1E1ounAgz-24">
          <mxGeometry width="50" height="50" relative="1" as="geometry">
            <mxPoint x="430" y="450" as="sourcePoint" />
            <mxPoint x="430" y="500" as="targetPoint" />
          </mxGeometry>
        </mxCell>
      </root>
    </mxGraphModel>
  </diagram>
</mxfile>
